<?xml version="1.0" encoding="utf-8"?>
<!-- Generator: Adobe Illustrator 19.0.0, SVG Export Plug-In . SVG Version: 6.00 Build 0)  -->
<svg version="1.1" id="Calque_1" xmlns="http://www.w3.org/2000/svg" xmlns:xlink="http://www.w3.org/1999/xlink" x="0px" y="0px"
	 viewBox="-206 346 1230 300" style="enable-background:new -206 346 1230 300;" xml:space="preserve">
<style type="text/css">
	.st0{fill:#FFFFFF;}
	.st1{fill:#F39208;}
	.st2{fill:#FCC010;}
	.st3{fill:#F49619;}
	.st4{fill:#EC630E;}
	.st5{fill:#CBEAFC;}
	.st6{fill:#77C2E0;}
	.st7{fill:#F9DE6A;}
	.st8{fill:#C6781A;}<?xml version="1.0" encoding="UTF-8" standalone="no"?>
<!-- Generator: Adobe Illustrator 19.0.0, SVG Export Plug-In . SVG Version: 6.00 Build 0)  -->

<svg
   xmlns:dc="http://purl.org/dc/elements/1.1/"
   xmlns:cc="http://creativecommons.org/ns#"
   xmlns:rdf="http://www.w3.org/1999/02/22-rdf-syntax-ns#"
   xmlns:svg="http://www.w3.org/2000/svg"
   xmlns="http://www.w3.org/2000/svg"
   xmlns:sodipodi="http://sodipodi.sourceforge.net/DTD/sodipodi-0.dtd"
   xmlns:inkscape="http://www.inkscape.org/namespaces/inkscape"
   version="1.1"
   id="Calque_1"
   x="0px"
   y="0px"
   viewBox="-206 346 1230 300"
   style="enable-background:new -206 346 1230 300;"
   xml:space="preserve"
   sodipodi:docname="fresh-white.svg"
   inkscape:version="0.92.3 (2405546, 2018-03-11)"><metadata
   id="metadata36"><rdf:RDF><cc:Work
       rdf:about=""><dc:format>image/svg+xml</dc:format><dc:type
         rdf:resource="http://purl.org/dc/dcmitype/StillImage" /></cc:Work></rdf:RDF></metadata><defs
   id="defs34" /><sodipodi:namedview
   pagecolor="#ffffff"
   bordercolor="#666666"
   borderopacity="1"
   objecttolerance="10"
   gridtolerance="10"
   guidetolerance="10"
   inkscape:pageopacity="0"
   inkscape:pageshadow="2"
   inkscape:window-width="1299"
   inkscape:window-height="713"
   id="namedview32"
   showgrid="false"
   inkscape:snap-global="false"
   inkscape:zoom="0.27804878"
   inkscape:cx="196.00877"
   inkscape:cy="150"
   inkscape:window-x="67"
   inkscape:window-y="27"
   inkscape:window-maximized="1"
   inkscape:current-layer="Calque_1" />
<style
   type="text/css"
   id="style2">
	.st0{fill:#FFFFFF;}
	.st1{fill:#F39208;}
	.st2{fill:#FCC010;}
	.st3{fill:#F49619;}
	.st4{fill:#EC630E;}
	.st5{fill:#CBEAFC;}
	.st6{fill:#77C2E0;}
	.st7{fill:#F9DE6A;}
	.st8{fill:#C6781A;}
</style>





















<g
   id="g902"
   transform="translate(690.52632,-507.10526)"><path
     inkscape:connector-curvature="0"
     id="text883"
     d="m -618.31335,863.0339 c -6.9503,0 -13.4982,1.1703 -19.6426,3.51012 -6.1445,2.25318 -11.4828,5.32885 -16.0156,9.22853 -4.5328,3.89969 -8.1593,8.4932 -10.8789,13.77944 -2.619,5.28623 -3.9297,10.91832 -3.9297,16.89787 0,5.89285 1.3107,11.48294 3.9297,16.76917 2.7196,5.19958 6.3461,9.74917 10.8789,13.64885 4.5328,3.89969 9.8711,7.01931 16.0156,9.35915 6.1444,2.25313 12.6923,3.37954 19.6426,3.37954 6.8495,0 13.2961,-1.12641 19.3398,-3.37954 6.1445,-2.33984 11.4828,-5.45946 16.0156,-9.35915 4.5328,-3.89968 8.1076,-8.44927 10.7266,-13.64885 2.7197,-5.28623 4.0801,-10.87632 4.0801,-16.76917 0,-5.97955 -1.3604,-11.61164 -4.0801,-16.89787 -2.619,-5.28624 -6.1938,-9.87975 -10.7266,-13.77944 -4.5328,-3.89968 -9.8711,-6.97535 -16.0156,-9.22853 -6.0437,-2.33982 -12.4903,-3.51012 -19.3398,-3.51012 z m 346.3046,0 c -6.9502,0 -13.4981,1.1703 -19.6425,3.51012 -6.1445,2.25318 -11.4829,5.32885 -16.0156,9.22853 -4.5329,3.89969 -8.1593,8.4932 -10.879,13.77944 -2.6189,5.28623 -3.9277,10.91832 -3.9277,16.89787 0,5.89285 1.3088,11.48294 3.9277,16.76917 2.7197,5.19958 6.3461,9.74917 10.879,13.64885 4.5327,3.89969 9.8711,7.01931 16.0156,9.35915 6.1444,2.25313 12.6923,3.37954 19.6425,3.37954 6.8496,0 13.2962,-1.12641 19.3399,-3.37954 6.1444,-2.33984 11.4828,-5.45946 16.0156,-9.35915 4.5328,-3.89968 8.1096,-8.44927 10.7285,-13.64885 2.7197,-5.28623 4.0782,-10.87632 4.0782,-16.76917 0,-5.97955 -1.3585,-11.61164 -4.0782,-16.89787 -2.6189,-5.28624 -6.1957,-9.87975 -10.7285,-13.77944 -4.5328,-3.89968 -9.8712,-6.97535 -16.0156,-9.22853 -6.0437,-2.33982 -12.4903,-3.51012 -19.3399,-3.51012 z m -336.7871,12.22021 c 4.0292,0.95324 7.7053,2.42521 11.0293,4.41839 3.4248,1.90651 6.3462,4.24718 8.7637,7.02029 2.5182,2.68648 4.4824,5.71823 5.8926,9.09794 1.4102,3.37977 2.1152,6.93275 2.1152,10.65913 0,3.72633 -0.705,7.27937 -2.1152,10.65908 -1.4102,3.37972 -3.3744,6.45734 -5.8926,9.23043 -2.4175,2.68645 -5.3389,5.02522 -8.7637,7.01838 -3.324,1.99319 -7.0001,3.42315 -11.0293,4.28978 4.7343,-3.98635 8.462,-8.6658 11.1817,-14.0387 2.8204,-5.37287 4.2305,-11.09281 4.2305,-17.15897 0,-6.06621 -1.4101,-11.78418 -4.2305,-17.15712 -2.7197,-5.37288 -6.4474,-10.05228 -11.1817,-14.03863 z m 346.3047,0 c 4.0292,0.95324 7.7073,2.42521 11.0313,4.41839 3.4248,1.90651 6.3461,4.24718 8.7636,7.02029 2.5183,2.68648 4.4824,5.71823 5.8926,9.09794 1.4102,3.37977 2.1152,6.93275 2.1152,10.65913 0,3.72633 -0.705,7.27937 -2.1152,10.65908 -1.4102,3.37972 -3.3743,6.45734 -5.8926,9.23043 -2.4175,2.68645 -5.3388,5.02522 -8.7636,7.01838 -3.324,1.99319 -7.0021,3.42315 -11.0313,4.28978 4.7342,-3.98635 8.462,-8.6658 11.1817,-14.0387 2.8204,-5.37287 4.2304,-11.09281 4.2304,-17.15897 0,-6.06621 -1.41,-11.78418 -4.2304,-17.15712 -2.7197,-5.37288 -6.4475,-10.05228 -11.1817,-14.03863 z m 461.7423,7.01834 c -4.835,0 -8.7633,0.38965 -11.7853,1.16946 -3.0218,0.77993 -5.3891,1.90634 -7.1015,3.37954 -1.7124,1.47321 -2.8721,3.38049 -3.4766,5.72031 -0.6043,2.25313 -0.9063,4.85348 -0.9063,7.79988 v 107.13046 h -28.8828 c -0.5288,-3.836 -1.3242,-7.3527 -2.3926,-10.54767 -2.1152,-6.32617 -5.1378,-11.65663 -9.0664,-15.98962 -3.8276,-4.333 -8.4113,-7.80006 -13.75,-10.39984 -5.2379,-2.68649 -11.0787,-4.72163 -17.5253,-6.10821 -6.3459,-1.47322 -13.146,-2.42781 -20.3984,-2.86112 -7.1518,-0.43327 -14.504,-0.64902 -22.0586,-0.64902 -7.9576,0 -15.6633,0.5193 -23.1172,1.55922 -7.4539,1.0399 -14.4049,2.38396 -20.8516,4.03052 -6.3459,1.64651 -12.0874,3.50991 -17.2246,5.58974 -5.1372,2.07981 -9.3674,4.11501 -12.6914,6.10817 -0.6044,0.34688 -1.2597,0.78002 -1.9648,1.29999 -0.6044,0.51995 -0.9063,1.12709 -0.9063,1.82037 0,0.69326 0.2521,1.34236 0.7559,1.94899 l 5.1367,7.02028 c 0.8058,1.12659 1.6618,1.68981 2.5684,1.68981 0.5036,0 1.008,-0.13003 1.5117,-0.38965 0.5036,-0.26004 1.0577,-0.56356 1.6621,-0.91017 1.3094,-0.69327 2.9201,-1.47223 4.834,-2.33881 1.9138,-0.86658 3.9296,-1.64749 6.0449,-2.34076 2.1153,-0.77993 4.28,-1.42903 6.4961,-1.94899 2.3167,-0.51997 4.4815,-0.78155 6.4961,-0.78155 1.7124,0 3.4759,0.17365 5.289,0.52039 1.9139,0.26006 3.6258,0.91102 5.1367,1.95095 1.6117,0.95324 2.9225,2.42522 3.9297,4.41838 1.0073,1.99318 1.5098,4.67941 1.5098,8.05913 v 8.96937 c -1.1415,0.077 -2.2756,0.1736 -3.4063,0.2803 h -105.8339 v -2.7497 h 27.1972 c 2.1153,0 3.1719,-0.9527 3.1719,-2.8592 v -10.39987 c 0,-1.81987 -1.0566,-2.72863 -3.1719,-2.72863 h -27.1972 v -59.66668 c 0,-1.2999 -0.2521,-2.3824 -0.7559,-3.24898 -0.5036,-0.95328 -1.157,-1.69021 -1.9629,-2.21018 -0.7051,-0.51997 -1.5114,-0.86553 -2.418,-1.03883 -0.8058,-0.26005 -1.5605,-0.38966 -2.2656,-0.38966 -1.9138,0 -4.1302,0.30157 -6.6484,0.90826 -2.5182,0.60663 -5.6919,1.51734 -9.5196,2.73059 l -83.4023,26.51807 c -2.0146,0.69328 -3.2737,1.68989 -3.7773,2.98978 -0.403,1.29989 -0.6055,2.60004 -0.6055,3.89993 v 29.50787 h -15.7129 c -2.1153,0 -3.1738,0.90875 -3.1738,2.72862 v 10.39991 c 0,1.9065 1.0585,2.8592 3.1738,2.8592 h 15.7129 v 2.7497 h -32.6367 v -27.31691 c 0,-3.11975 -0.2502,-5.80598 -0.7539,-8.05911 -0.5037,-2.25318 -1.5622,-4.11654 -3.1738,-5.58974 -1.6117,-1.4732 -3.8778,-2.55765 -6.7989,-3.25092 -2.8204,-0.77993 -6.5481,-1.16941 -11.1816,-1.16941 h -66.1778 c -4.8349,0 -8.7632,0.38964 -11.7851,1.16941 -3.0219,0.77993 -5.3892,1.90634 -7.1016,3.37959 -1.7124,1.4732 -2.8702,3.38049 -3.4746,5.72031 -0.6044,2.25313 -0.9082,4.85342 -0.9082,7.79987 v 27.31691 h -27.8535 c -0.2026,-1.1144 -0.4363,-2.2059 -0.7031,-3.2701 -1.0073,-4.41967 -2.5167,-8.49194 -4.5313,-12.21832 l 21.9082,-13.25903 c 2.5182,-1.5599 3.7774,-3.29345 3.7774,-5.19997 0,-1.29989 -0.6058,-2.55612 -1.8145,-3.76937 l -7.4023,-6.75914 c -1.3095,-1.12654 -2.7712,-1.68979 -4.3829,-1.68979 -0.9065,0 -1.9134,0.21558 -3.0214,0.64906 -1.0073,0.4333 -2.0639,1.12823 -3.1719,2.08152 l -16.4707,14.42844 c -4.6335,-4.15965 -9.9719,-7.58282 -16.0156,-10.26926 -5.943,-2.6865 -12.2883,-4.80947 -19.0371,-6.36937 -6.6481,-1.64652 -13.4979,-2.77293 -20.5489,-3.37954 -7.051,-0.60664 -13.9504,-0.91022 -20.6992,-0.91022 -7.5546,0 -15.1094,0.47541 -22.6641,1.42866 -7.5546,0.86662 -14.8075,2.3405 -21.7578,4.42032 -6.8495,1.99318 -13.2464,4.59347 -19.1894,7.79988 -5.943,3.20642 -11.1305,7.14887 -15.5625,11.82854 -4.3313,4.59295 -7.7552,9.96538 -10.2735,16.11823 -2.5182,6.06616 -3.7773,12.95646 -3.7773,20.66916 0,11.3524 2.5183,20.9289 7.5547,28.7283 5.0364,7.7993 11.6836,14.1244 19.9434,18.9774 -2.619,2.0798 -5.2366,4.4205 -7.8555,7.0202 -2.619,2.5132 -4.9366,5.3731 -6.9512,8.5796 -2.0146,3.2064 -3.6768,6.8014 -4.9863,10.7877 -1.2088,3.8997 -1.8125,8.2336 -1.8125,12.9999 0,4.4196 0.9056,9.099 2.7187,14.0386 1.8131,4.9396 4.7346,9.4453 8.7637,13.5183 4.0292,4.1597 9.2682,7.5828 15.7149,10.2693 6.5473,2.6864 14.5052,4.0305 23.873,4.0305 6.7488,0 13.1438,-0.3037 19.1875,-0.9102 6.1444,-0.5199 12.0369,-1.1271 17.6777,-1.8203 5.6408,-0.6067 11.1818,-1.2119 16.6211,-1.8185 5.4394,-0.5199 10.9287,-0.7815 16.4688,-0.7815 12.8932,0 20.2971,2.0371 22.2109,6.1101 0.2015,0.3465 0.5033,0.7801 0.9063,1.3 0.4029,0.6066 1.3105,0.9102 2.7207,0.9102 h 11.1796 c 1.511,0 2.5179,-0.3037 3.0215,-0.9102 0.6044,-0.6066 1.0076,-1.1259 1.209,-1.5592 1.108,-3.2931 2.1666,-6.7602 3.1738,-10.3999 1.1081,-3.6397 1.6622,-7.8857 1.6622,-12.7386 0,-5.4596 -1.1082,-10.3128 -3.3243,-14.5591 -2.216,-4.2463 -5.1871,-7.8432 -8.914,-10.7897 -3.6263,-2.8597 -7.8068,-5.0267 -12.541,-6.4999 -4.7343,-1.5599 -9.5702,-2.3388 -14.5059,-2.3388 -5.1372,0 -10.0227,0.3037 -14.6563,0.9102 -4.5328,0.5199 -9.0648,1.1271 -13.5976,1.8204 -4.5328,0.6066 -9.1662,1.1698 -13.9004,1.6897 -4.7343,0.6067 -9.872,0.9083 -15.4121,0.9083 -5.0364,0 -9.3163,-0.4754 -12.8418,-1.4286 -3.5255,-0.9533 -6.3973,-2.2535 -8.6133,-3.9 -2.1153,-1.6465 -3.6763,-3.5538 -4.6836,-5.7203 -1.0073,-2.2532 -1.5117,-4.6797 -1.5117,-7.2795 v -1.1694 c 0,-0.4333 0.052,-0.8667 0.1523,-1.3 6.9503,1.9932 14.2031,3.467 21.7578,4.4203 7.5547,0.8666 15.1591,1.3 22.8145,1.3 7.051,0 14.2523,-0.3473 21.6054,-1.0407 7.3532,-0.6933 14.4552,-1.9057 21.3047,-3.6389 6.9503,-1.7331 13.4465,-4.1177 19.4903,-7.1508 4.2781,-2.147 8.1703,-4.7146 11.6914,-7.6866 v 0.9716 h 45.875 v 13.4761 c 0,3.033 0.3038,5.6753 0.9082,7.9285 0.6043,2.2531 1.7622,4.1165 3.4746,5.5897 1.7124,1.4732 4.0797,2.5997 7.1015,3.3796 3.0219,0.7799 6.9502,1.1694 11.7852,1.1694 h 66.1777 c 4.6336,0 8.3613,-0.3456 11.1817,-1.0388 2.9211,-0.78 5.1871,-1.9064 6.7988,-3.3796 1.6117,-1.5599 2.6702,-3.4232 3.1738,-5.5897 0.5037,-2.2532 0.7539,-4.8535 0.7539,-7.7999 v -13.7353 h 33.0098 c 0.654,6.4647 2.1841,11.8329 4.6133,16.076 3.4248,5.8062 8.1078,10.1821 14.0508,13.1285 6.0437,2.9464 13.1456,4.8098 21.3047,5.5897 8.2597,0.8666 17.1749,1.3 26.7441,1.3 6.6481,0 13.2953,-0.3473 19.9433,-1.0407 6.6482,-0.6067 12.9438,-1.4735 18.8868,-2.6 6.0437,-1.0399 11.6343,-2.2522 16.7715,-3.6388 5.2379,-1.3866 9.7719,-2.7746 13.5996,-4.1611 0.6044,-0.1732 1.3094,-0.5628 2.1152,-1.1694 0.8058,-0.6066 1.2071,-1.777 1.2071,-3.5101 v -10.0082 c 0,-1.1265 -0.5542,-1.6898 -1.6622,-1.6898 -0.6044,0 -1.3591,0.13 -2.2656,0.3896 -0.9066,0.1733 -1.9135,0.3893 -3.0215,0.6491 -1.0073,0.1732 -2.1155,0.3909 -3.3242,0.6509 -1.2088,0.1732 -2.3666,0.2592 -3.4746,0.2592 -4.9357,0 -8.6138,-1.2562 -11.0313,-3.7693 -1.3822,-1.4995 -2.3428,-3.6607 -2.9004,-6.4558 h 50.1563 c 0.3197,1.0578 0.6815,2.0863 1.0957,3.0762 1.8131,4.333 4.2798,8.1036 7.4023,11.31 3.2234,3.2064 7.0007,5.8927 11.3321,8.0591 4.3313,2.1665 8.9646,3.9421 13.9004,5.3286 5.0364,1.2999 10.2754,2.2526 15.7148,2.8592 5.5401,0.6066 11.0294,0.9102 16.4688,0.9102 h 80.6835 c 4.835,0 8.7633,-0.3456 11.7852,-1.0388 3.0219,-0.78 5.3892,-1.9064 7.1016,-3.3796 1.7123,-1.4732 2.8702,-3.2946 3.4746,-5.4611 0.6043,-2.2531 0.9062,-4.8096 0.9062,-7.6693 v -13.9945 h 28.1035 v 13.4761 c 0,3.033 0.302,5.6753 0.9063,7.9285 0.6044,2.2531 1.7642,4.1165 3.4765,5.5897 1.7124,1.4732 4.0797,2.5997 7.1016,3.3796 3.0219,0.7799 6.9502,1.1694 11.7852,1.1694 h 65.875 c 4.6335,0 8.3612,-0.3456 11.1816,-1.0388 2.9211,-0.78 5.1872,-1.9064 6.7988,-3.3796 1.6117,-1.5599 2.72,-3.4233 3.3242,-5.5897 0.6044,-2.2532 0.9063,-4.8535 0.9063,-7.7999 V 900.21124 c 0,-3.03306 -0.302,-5.67537 -0.9063,-7.92855 -0.5035,-2.25313 -1.5602,-4.11649 -3.1718,-5.58973 -1.6117,-1.47321 -3.8281,-2.55761 -6.6485,-3.25088 -2.8204,-0.77998 -6.5481,-1.16946 -11.1816,-1.16946 z m 63.4589,10.92028 c 2.4175,0 4.3816,0.086 5.8925,0.25919 1.5111,0.0868 2.7185,0.43221 3.6251,1.03884 0.9066,0.51997 1.5122,1.34474 1.8144,2.47134 0.3024,1.12658 0.4531,2.64243 0.4531,4.54895 v 105.96105 h -11.7851 z m -1124.1329,15.33861 c -4.8349,0 -8.7633,0.38965 -11.7851,1.1694 -3.0219,0.77997 -5.3892,1.95031 -7.1016,3.51017 -1.7124,1.4732 -2.8702,3.33656 -3.4746,5.58974 -0.6044,2.25313 -0.9062,4.89544 -0.9062,7.92854 v 150.39861 c 0,3.033 0.3018,5.6753 0.9062,7.9285 0.6044,2.2532 1.7622,4.1166 3.4746,5.5898 1.7124,1.4732 4.0797,2.5996 7.1016,3.3795 3.0218,0.7799 6.9502,1.1694 11.7851,1.1694 h 71.1641 c 7.3532,0 14.7074,-0.4334 22.0606,-1.3 7.4539,-0.8665 14.6055,-2.5562 21.4551,-5.0693 6.9503,-2.5998 13.3968,-6.1528 19.3398,-10.6591 6.0437,-4.5929 11.2312,-10.5725 15.5625,-17.9386 4.4321,-7.3661 7.9076,-16.2915 10.4258,-26.7773 2.6189,-10.5726 3.9277,-23.0949 3.9277,-37.56706 0,-12.30567 -1.2094,-23.00854 -3.6269,-32.10782 -2.4175,-9.09927 -5.7401,-16.89829 -9.9707,-23.39777 -4.2306,-6.49948 -9.2671,-11.78601 -15.1094,-15.85905 -5.7415,-4.15964 -11.9875,-7.40909 -18.7363,-9.74887 -6.7488,-2.33983 -13.8508,-3.94356 -21.3047,-4.81014 -7.4539,-0.95324 -14.9571,-1.42865 -22.5117,-1.42865 z m 64.8184,17.93861 h 11.7852 v 150.78645 h -11.7852 z m 24.629,0.2592 c 9.3677,0.0869 17.3753,1.86218 24.0234,5.32859 6.7488,3.46636 12.2898,8.31951 16.6211,14.55901 4.3313,6.23953 7.503,13.77889 9.5176,22.6182 2.0145,8.83925 3.0214,18.63341 3.0214,29.3792 0,10.83245 -1.0069,21.01415 -3.0214,30.54675 -2.0146,9.4459 -5.1863,17.7222 -9.5176,24.8283 -4.2306,7.1061 -9.7219,12.7382 -16.4707,16.8978 -6.7488,4.073 -14.8061,6.1541 -24.1738,6.2407 z m 682.4863,8.1897 c 1.7124,0 2.7709,0.56321 3.1738,1.6898 0.5037,1.03988 0.7559,2.42597 0.7559,4.15918 v 66.70427 h -11.7852 v -70.47368 l 2.416,-0.91016 c 1.108,-0.43332 2.1169,-0.73686 3.0235,-0.91018 1.0072,-0.17322 1.8116,-0.25919 2.416,-0.25919 z m -561.6113,27.16718 c -4.835,0 -8.7653,0.38965 -11.7872,1.16941 -3.0218,0.77993 -5.3872,1.90634 -7.0996,3.37958 -1.7124,1.47321 -2.8722,3.38049 -3.4765,5.72031 -0.6044,2.25314 -0.9063,4.85343 -0.9063,7.79989 v 96.97258 c 0,3.033 0.3019,5.6753 0.9063,7.9285 0.6043,2.2532 1.7641,4.1166 3.4765,5.5898 1.7124,1.4732 4.0778,2.5996 7.0996,3.3795 3.0219,0.7799 6.9522,1.1694 11.7872,1.1694 h 66.1777 c 4.6335,0 8.3612,-0.3456 11.1816,-1.0388 2.9212,-0.7799 5.1872,-1.9064 6.7989,-3.3796 1.6116,-1.5599 2.6682,-3.4232 3.1718,-5.5897 0.5037,-2.2532 0.7559,-4.8535 0.7559,-7.7999 v -97.23178 c 0,-3.11975 -0.2522,-5.80599 -0.7559,-8.05912 -0.5036,-2.25318 -1.5602,-4.11654 -3.1718,-5.58974 -1.6117,-1.47321 -3.8777,-2.55766 -6.7989,-3.25092 -2.8204,-0.77993 -6.5481,-1.16941 -11.1816,-1.16941 z m 63.4589,10.92022 c 2.4175,0 4.3817,0.086 5.8926,0.25921 1.5109,0.0869 2.7185,0.43412 3.625,1.04074 0.9066,0.51996 1.5123,1.3428 1.8145,2.46938 0.3021,1.12659 0.4531,2.64248 0.4531,4.549 v 94.63182 c 0,1.9932 -0.151,3.553 -0.4531,4.6796 -0.3022,1.0399 -0.9079,1.8646 -1.8145,2.4712 -0.9065,0.52 -2.1141,0.8656 -3.625,1.0389 -1.5109,0.087 -3.4751,0.1304 -5.8926,0.1304 z m 346.3047,0 c 2.4175,0 4.3817,0.086 5.8926,0.25921 1.5109,0.0869 2.7184,0.43412 3.625,1.04074 0.9066,0.51996 1.5123,1.3428 1.8144,2.46938 0.3024,1.12659 0.4532,2.64248 0.4532,4.549 v 26.14752 h -11.7852 z m 350.5352,3.63881 c 2.6189,0.77992 5.4391,1.99418 8.461,3.64074 3.0218,1.55985 5.7923,3.89862 8.3105,7.01833 2.6189,3.03311 4.7857,6.97556 6.4981,11.82853 0.8886,2.47364 1.5411,5.25884 1.9686,8.33944 h -11.6347 c -0.2499,-2.3162 -0.601,-4.494 -1.0625,-6.5191 -1.0073,-4.50632 -2.2167,-8.36285 -3.627,-11.56926 -1.4101,-3.20641 -2.9712,-5.84873 -4.6835,-7.92854 -1.6118,-2.07983 -3.0218,-3.68357 -4.2305,-4.81014 z m -523.084,5.58972 c -2.0146,0.34645 -4.5328,1.25734 -7.5547,2.73054 -2.9211,1.47325 -5.7412,3.72608 -8.4609,6.75914 -2.7197,2.94644 -5.087,6.75909 -7.1016,11.43874 -1.9138,4.5929 -2.8711,10.1391 -2.8711,16.6386 0,6.4995 0.8063,12.0896 2.418,16.7692 1.6116,4.6796 3.6771,8.5782 6.1953,11.6979 2.5182,3.0331 5.2887,5.3299 8.3105,6.8898 3.1226,1.5598 6.1434,2.5125 9.0645,2.8591 -4.835,0 -9.5696,-0.693 -14.2031,-2.0796 -4.5328,-1.4732 -8.5605,-3.726 -12.086,-6.7591 -3.5255,-3.0331 -6.3972,-6.9756 -8.6132,-11.8285 -2.1154,-4.853 -3.1719,-10.7027 -3.1719,-17.5488 0,-6.8461 1.2591,-12.6519 3.7773,-17.4182 2.5182,-4.76632 5.6402,-8.62289 9.3672,-11.56931 3.8277,-3.03309 7.9566,-5.19999 12.3887,-6.49989 4.432,-1.38655 8.6126,-2.07962 12.541,-2.07962 z m 12.8438,6.4999 c 2.4174,0 4.7848,0.25963 7.1015,0.77965 2.4175,0.51995 4.6319,1.42872 6.6465,2.72861 l -9.6699,8.57946 c -0.9066,0.78 -1.3594,1.6907 -1.3594,2.7306 0,0.8666 0.2521,1.5157 0.7559,1.949 l 3.0215,2.8611 c 0.8058,0.8666 1.8643,1.3 3.1738,1.3 0.8058,0 1.6102,-0.2177 2.416,-0.651 l 10.125,-6.1082 c 1.7124,4.2464 2.5684,9.6188 2.5684,16.1183 0,6.4995 -0.7051,11.828 -2.1153,15.9877 -1.4102,4.073 -3.275,7.3224 -5.5918,9.7489 -2.216,2.3398 -4.8336,3.9874 -7.8555,4.9407 -3.0218,0.8666 -6.0942,1.3 -9.2167,1.3 -3.3241,0 -6.5474,-0.3473 -9.67,-1.0408 -3.1226,-0.6933 -5.893,-2.1232 -8.3105,-4.2897 -2.4175,-2.1665 -4.3816,-5.2861 -5.8926,-9.3592 -1.4102,-4.1596 -2.1152,-9.6619 -2.1152,-16.508 0,-6.8461 0.9056,-12.3064 2.7187,-16.3794 1.8131,-4.15967 4.0295,-7.32128 6.6484,-9.48776 2.7197,-2.16651 5.5398,-3.55446 8.461,-4.16113 3.0218,-0.69327 5.7427,-1.03883 8.1602,-1.03883 z m 291.6093,25.65592 h 12.668 v 5.7146 h -12.668 z m -216.3808,1.5458 h 15.7656 l 39.1719,36.6069 h -14.4571 l -9.3632,-9.3917 h -46.3321 l -9.3633,9.3917 h -14.664 z m 328.8047,1.348 h 12.7363 v 7.798 h 26.0937 v 3.5063 h -26.0937 v 14.9066 c 0,2.2394 0.8506,3.6772 2.5488,4.3147 1.7441,0.6375 5.255,0.9562 10.5332,0.9562 h 13.0117 v 3.7771 h -13.0117 c -9.7761,0 -16.5226,-0.6462 -20.2402,-1.9375 -3.7177,-1.3076 -5.5781,-3.6779 -5.5781,-7.1105 v -14.9066 h -9.293 v -3.5063 h 9.293 z m 231.3222,0 h 12.7364 v 7.798 h 26.0917 v 3.5063 h -26.0917 v 14.9066 c 0,2.2394 0.8487,3.6772 2.5468,4.3147 1.7441,0.6375 5.2551,0.9562 10.5332,0.9562 h 13.0117 v 3.7771 h -13.0117 c -9.776,0 -16.5225,-0.6462 -20.2402,-1.9375 -3.7177,-1.3076 -5.5762,-3.6779 -5.5762,-7.1105 v -14.9066 h -9.295 v -3.5063 h 9.295 z m -552.2793,3.5312 -18.8633,18.2171 h 37.7969 z m 85.9883,3.6043 c 4.6815,0 9.088,0.1215 13.2188,0.3668 4.1307,0.2452 7.9395,0.6137 11.4277,1.1041 v 4.2667 c -3.58,-0.6538 -7.297,-1.144 -11.1524,-1.4709 -3.8553,-0.327 -7.8497,-0.4915 -11.9804,-0.4915 -6.2879,0 -11.0148,0.3447 -14.1817,1.0311 -3.121,0.6865 -4.6816,1.7146 -4.6816,3.0877 0,1.0461 1.1241,1.8723 3.373,2.4771 2.249,0.5884 6.7698,1.1523 13.5625,1.6917 l 4.3379,0.3435 c 8.9958,0.6865 15.3751,1.6582 19.1387,2.9168 3.8094,1.2423 5.7148,2.9836 5.7148,5.223 0,2.5499 -2.8458,4.5688 -8.5371,6.0563 -5.6453,1.4875 -13.4241,2.2313 -23.3378,2.2313 -4.1308,0 -8.4455,-0.1474 -12.9434,-0.4417 -4.452,-0.2778 -9.1564,-0.7029 -14.1133,-1.275 v -4.6584 c 4.6815,0.8663 9.2941,1.5211 13.8379,1.9624 4.5438,0.425 9.0421,0.6376 13.4941,0.6376 5.9666,0 10.5568,-0.3601 13.7696,-1.0792 3.2128,-0.7356 4.8183,-1.7656 4.8183,-3.0896 0,-1.226 -1.1709,-2.1651 -3.5117,-2.8189 -2.2949,-0.6538 -7.3665,-1.2847 -15.2148,-1.8895 l -4.4063,-0.3668 c -7.8484,-0.5884 -13.5157,-1.4883 -17.0039,-2.6978 -3.4882,-1.226 -5.2324,-2.9003 -5.2324,-5.0252 0,-2.5827 2.5705,-4.5777 7.7109,-5.9834 5.1405,-1.4057 12.4378,-2.1084 21.8926,-2.1084 z m 73.5273,0 c 4.6815,0 9.0881,0.1215 13.2188,0.3668 4.1307,0.2452 7.9396,0.6137 11.4277,1.1041 v 4.2667 c -3.5799,-0.6538 -7.297,-1.144 -11.1523,-1.4709 -3.8554,-0.327 -7.8497,-0.4915 -11.9805,-0.4915 -6.2879,0 -11.0147,0.3447 -14.1816,1.0311 -3.121,0.6865 -4.6817,1.7146 -4.6817,3.0877 0,1.0461 1.1241,1.8723 3.3731,2.4771 2.2489,0.5884 6.7697,1.1523 13.5625,1.6917 l 4.3379,0.3435 c 8.9958,0.6865 15.3751,1.6582 19.1387,2.9168 3.8094,1.2423 5.7148,2.9836 5.7148,5.223 0,2.5499 -2.8459,4.5688 -8.5371,6.0563 -5.6454,1.4875 -13.4242,2.2313 -23.3379,2.2313 -4.1308,0 -8.4455,-0.1474 -12.9434,-0.4417 -4.452,-0.2778 -9.1564,-0.7029 -14.1132,-1.275 v -4.6584 c 4.6814,0.8663 9.294,1.5211 13.8378,1.9624 4.5438,0.425 9.0422,0.6376 13.4942,0.6376 5.9666,0 10.5548,-0.3601 13.7676,-1.0792 3.2127,-0.7356 4.8203,-1.7656 4.8203,-3.0896 0,-1.226 -1.171,-2.1651 -3.5118,-2.8189 -2.2948,-0.6538 -7.3664,-1.2847 -15.2148,-1.8895 l -4.4062,-0.3668 c -7.8484,-0.5884 -13.5158,-1.4883 -17.0039,-2.6978 -3.4882,-1.226 -5.2325,-2.9003 -5.2325,-5.0252 0,-2.5827 2.5705,-4.5777 7.711,-5.9834 5.1404,-1.4057 12.4378,-2.1084 21.8925,-2.1084 z m 112.6309,0 c 4.6815,0 9.088,0.1215 13.2187,0.3668 4.1308,0.2452 7.9396,0.6137 11.4278,1.1041 v 4.2667 c -3.58,-0.6538 -7.297,-1.144 -11.1523,-1.4709 -3.8554,-0.327 -7.8498,-0.4915 -11.9805,-0.4915 -6.2879,0 -11.0148,0.3447 -14.1817,1.0311 -3.1209,0.6865 -4.6816,1.7146 -4.6816,3.0877 0,1.0461 1.1241,1.8723 3.3731,2.4771 2.2489,0.5884 6.7697,1.1523 13.5625,1.6917 l 4.3378,0.3435 c 8.9958,0.6865 15.3751,1.6582 19.1387,2.9168 3.8094,1.2423 5.7149,2.9836 5.7149,5.223 0,2.5499 -2.8459,4.5688 -8.5372,6.0563 -5.6453,1.4875 -13.4241,2.2313 -23.3379,2.2313 -4.1307,0 -8.4454,-0.1474 -12.9433,-0.4417 -4.452,-0.2778 -9.1564,-0.7029 -14.1133,-1.275 v -4.6584 c 4.6815,0.8663 9.2941,1.5211 13.8379,1.9624 4.5438,0.425 9.0421,0.6376 13.4941,0.6376 5.9666,0 10.5568,-0.3601 13.7696,-1.0792 3.2127,-0.7356 4.8183,-1.7656 4.8183,-3.0896 0,-1.226 -1.171,-2.1651 -3.5117,-2.8189 -2.2948,-0.6538 -7.3664,-1.2847 -15.2148,-1.8895 l -4.4063,-0.3668 c -7.8484,-0.5884 -13.5157,-1.4883 -17.0039,-2.6978 -3.4881,-1.226 -5.2324,-2.9003 -5.2324,-5.0252 0,-2.5827 2.5705,-4.5777 7.7109,-5.9834 5.1405,-1.4057 12.4378,-2.1084 21.8926,-2.1084 z m 131.4258,0 c 11.1529,0 19.4826,1.0301 24.9902,3.0896 5.5077,2.0596 8.2618,5.1803 8.2618,9.3649 v 15.6689 h -12.668 v -4.1688 c -2.8915,1.6673 -6.4943,2.9012 -10.8086,3.7022 -4.3143,0.7846 -9.592,1.1771 -15.834,1.1771 -7.8943,0 -14.1818,-0.785 -18.8633,-2.3542 -4.6356,-1.5856 -6.9531,-3.7021 -6.9531,-6.3501 0,-3.0894 2.8908,-5.4185 8.6738,-6.9877 5.8289,-1.5692 14.5033,-2.3542 26.0235,-2.3542 h 17.7617 v -0.4416 c 0,-2.0759 -1.9259,-3.6765 -5.7813,-4.8044 -3.8094,-1.1442 -9.1809,-1.7167 -16.1113,-1.7167 -4.4061,0 -8.6964,0.1885 -12.873,0.5646 -4.1767,0.3761 -8.1935,0.9398 -12.0489,1.6917 v -4.1688 c 4.6356,-0.6375 9.1339,-1.1123 13.4941,-1.4228 4.3603,-0.327 8.6057,-0.4897 12.7364,-0.4897 z m 96.5898,0 c 8.8582,0 15.5598,0.9802 20.1035,2.9418 4.5439,1.9451 6.8165,4.8141 6.8165,8.6063 v 16.5753 h -12.668 v -16.4274 c 0,-2.599 -1.4239,-4.5442 -4.2695,-5.8355 -2.8456,-1.2914 -7.1136,-1.9375 -12.8047,-1.9375 -6.8386,0 -12.2307,0.7763 -16.1777,2.3292 -3.9473,1.5529 -5.922,3.6694 -5.922,6.3501 v 15.5211 h -12.7362 v -27.4609 h 12.7362 v 4.2648 c 3.0293,-1.651 6.587,-2.8849 10.672,-3.7022 4.1306,-0.8173 8.88,-1.2251 14.2499,-1.2251 z m -291.6289,0.6625 h 12.668 v 27.4609 h -12.668 z m 203.0254,13.6565 c -10.235,0 -17.3263,0.4163 -21.2734,1.2501 -3.9472,0.8336 -5.92,2.2561 -5.92,4.2667 0,1.6019 1.4689,2.877 4.4063,3.825 2.9833,0.9317 7.0207,1.398 12.1152,1.398 7.0223,0 12.6447,-0.8827 16.8672,-2.648 4.2684,-1.7817 6.4024,-4.1452 6.4024,-7.0875 v -1.0043 z m -334.9297,24.9128 h 11.7852 v 12.3047 c 0,1.9932 -0.1508,3.553 -0.4532,4.6796 -0.3019,1.0399 -0.9078,1.8647 -1.8144,2.4713 -0.9066,0.52 -2.1141,0.8655 -3.625,1.0388 -1.5109,0.087 -3.4751,0.1305 -5.8926,0.1305 z m 144.1856,0 h 11.6835 c 0.094,1.4166 0.2586,2.7127 0.5118,3.8558 0.5036,1.7332 1.159,3.3369 1.9648,4.8101 0.9066,1.3866 1.9632,2.6428 3.1719,3.7694 1.3095,1.0399 2.7195,2.0805 4.2305,3.1203 -2.0146,0 -4.2806,-0.2176 -6.7989,-0.6509 -2.5182,-0.5199 -4.8855,-1.4726 -7.1015,-2.8592 -2.2161,-1.3866 -4.079,-3.2938 -5.5899,-5.7203 -1.0781,-1.7314 -1.7634,-3.8438 -2.0722,-6.3252 z m 97.5742,0 h 36.0996 v 14.9047 c -7.2525,0 -13.3455,-0.693 -18.2813,-2.0796 -4.9357,-1.3865 -8.9156,-3.2919 -11.9375,-5.7184 -2.5918,-2.0811 -4.5487,-4.4518 -5.8808,-7.1067 z m 122.8282,0 h 11.7851 v 12.3047 c 0,1.9932 -0.1508,3.553 -0.4531,4.6796 -0.3024,1.0399 -0.9079,1.8647 -1.8145,2.4713 -0.9066,0.52 -2.114,0.8655 -3.6251,1.0388 -1.5108,0.087 -3.4749,0.1305 -5.8924,0.1305 z m 139.4589,0 h 11.7851 v 12.3047 c 0,1.9932 -0.1508,3.553 -0.4531,4.6796 -0.3023,1.0399 -0.9078,1.8647 -1.8144,2.4713 -0.9066,0.52 -2.114,0.8655 -3.6251,1.0388 -1.5109,0.087 -3.475,0.1305 -5.8925,0.1305 z m -666.1699,38.9534 c 6.9503,0.78 12.3899,3.2925 16.3183,7.5388 4.0292,4.2463 6.043,9.5768 6.043,15.9896 0,3.4663 -0.302,6.5 -0.9062,9.0998 -0.5037,2.5998 -1.0578,4.4613 -1.6622,5.5879 -0.8058,-1.1266 -2.2655,-2.2951 -4.3808,-3.5083 -2.1153,-1.2132 -4.2304,-1.9502 -6.3457,-2.2101 0.2014,-0.8666 0.4517,-2.037 0.7539,-3.5102 0.3023,-1.4732 0.4531,-3.2926 0.4531,-5.4591 0,-5.0263 -0.9056,-9.49 -2.7187,-13.3897 -1.8131,-3.8997 -4.3314,-7.2789 -7.5547,-10.1387 z"
     style="font-style:normal;font-weight:normal;font-size:76.58779907px;line-height:1.25;font-family:sans-serif;letter-spacing:0px;word-spacing:0px;fill:#f39208;fill-opacity:1;stroke:none;stroke-width:7.17540693" /><path
     sodipodi:nodetypes="cscc"
     inkscape:connector-curvature="0"
     id="path917"
     d="m -780.90613,1096.2629 c 0,0 75.76613,-25.1749 75.52632,-61.1404 -0.72101,-108.13183 -73.78862,-126.37581 -73.78862,-126.37581 z"
     style="fill:#f39208;fill-opacity:1;stroke:#f39208;stroke-width:1px;stroke-linecap:butt;stroke-linejoin:miter;stroke-opacity:1" /><rect
     ry="9.2010508"
     y="1002.5442"
     x="-781.11591"
     height="18.402102"
     width="72.34948"
     id="rect919"
     style="opacity:1;fill:#ffffff;fill-opacity:1;stroke:#f39208;stroke-width:1.88035476;stroke-linejoin:round;stroke-miterlimit:4;stroke-dasharray:none;stroke-opacity:1;paint-order:stroke fill markers" /><rect
     transform="scale(1,-1)"
     y="-1018.7589"
     x="-885.52679"
     height="10.430738"
     width="90.557076"
     id="rect921"
     style="opacity:1;fill:#ffffff;fill-opacity:1;stroke:#f39208;stroke-width:1.6552285;stroke-linejoin:round;stroke-miterlimit:4;stroke-dasharray:none;stroke-opacity:1;paint-order:stroke fill markers" /></g>
<style
   id="style2-3"
   type="text/css">
	.st0{fill:#344358;}
	.st1{fill:#F39208;}
	.st2{fill:#FCC010;}
	.st3{fill:#F49619;}
	.st4{fill:#EC630E;}
	.st5{fill:#CBEAFC;}
	.st6{fill:#77C2E0;}
	.st7{fill:#F9DE6A;}
	.st8{fill:#C6781A;}
	.st9{fill:#010202;}
</style></svg>
</style>
<circle id="XMLID_2_" class="st0" cx="897.4" cy="529.4" r="25.9"/>
<circle id="XMLID_19_" class="st1" cx="951.3" cy="464.9" r="30.8"/>
<circle id="XMLID_20_" class="st0" cx="955.7" cy="549.1" r="13"/>
<path id="XMLID_59_" class="st2" d="M-168.3,486.8c-30.8-30.8-30.8-80.7,0-111.5s80.8-30.8,111.6,0L-168.3,486.8z"/>
<path id="XMLID_58_" class="st3" d="M-69.3,387.9l-15.4,15.4l-51.8,51.8l-19.1,19.1c-23.9-23.9-23.9-62.5,0-86.4
	C-131.8,364-93.1,364-69.3,387.9z"/>
<path id="XMLID_57_" class="st4" d="M-84.7,403.3l-51.8,51.8l-3.5-44.3c-0.3-4.1,2.9-7.6,7-7.6L-84.7,403.3L-84.7,403.3z"/>
<polygon id="XMLID_56_" class="st5" points="22.8,411.5 20.6,440 18.1,471.6 5.5,632.7 -114.4,632.7 -126.7,474.4 -128.3,454.5 
	-131.6,411.5 "/>
<rect id="XMLID_55_" x="-72.8" y="460.5" class="st6" width="37.8" height="37.8"/>
<polygon id="XMLID_54_" class="st6" points="22.8,411.5 20.6,440 5.5,632.7 -4.9,632.7 10.2,440 12.4,411.5 "/>
<path id="XMLID_53_" class="st1" d="M18.1,471.6L5.5,632.7h-119.9l-12.3-158.3c11.4-4.4,27.9-6.9,48.8-0.6c31.4,9.5,57,3.3,85.6-0.9
	C11.1,472.5,14.6,472,18.1,471.6z"/>
<path id="XMLID_52_" class="st7" d="M-35,478.6v19.7h-37.8v-23C-59.5,478.7-47.1,479.3-35,478.6z"/>
<path id="XMLID_51_" class="st8" d="M18.1,471.6L5.5,632.7H-4.9L7.6,473C11.1,472.5,14.6,472,18.1,471.6z"/>
<rect id="XMLID_50_" x="-95.1" y="510.4" transform="matrix(-0.3456 0.9384 -0.9384 -0.3456 394.1975 783.7637)" class="st7" width="37.8" height="37.8"/>
<path id="XMLID_42_" class="st0" d="M25.9,408.7c-0.8-0.9-1.9-1.4-3.1-1.4H-82.7l16.4-16.4l0,0l0,0l12.6-12.6c1.7-1.7,1.7-4.3,0-6
	c-32.4-32.4-85.1-32.4-117.6,0c-14.5,14.6-23.1,33.9-24.2,54.5c-0.1,2.3,1.7,4.3,4,4.4c0.1,0,0.1,0,0.2,0c2.2,0,4.1-1.8,4.2-4
	c1-18.5,8.7-35.8,21.8-48.9c14.1-14.1,32.8-21.9,52.8-21.9c18.5,0,36,6.7,49.7,19l-6.6,6.6c-25.6-22.6-64.8-21.6-89.3,2.9
	s-25.4,63.7-2.9,89.3l-6.6,6.6c-9.6-10.7-15.8-23.8-18-38.1c-0.4-2.3-2.5-3.9-4.8-3.5c-2.3,0.4-3.9,2.5-3.5,4.8
	c2.7,17.5,10.8,33.3,23.3,45.8c0.8,0.8,1.9,1.2,3,1.2c1.1,0,2.2-0.4,3-1.2l32.9-32.9l1.4,17.7v0.1l8.7,111c0.2,2.2,2,3.9,4.2,3.9
	c0.1,0,0.2,0,0.3,0c2.3-0.2,4.1-2.2,3.9-4.6l-8.4-107.7c13.2-4.3,27.7-4.1,43.1,0.6c0.7,0.2,1.4,0.4,2.1,0.6v19.8
	c0,2.3,1.9,4.2,4.2,4.2H-35c2.3,0,4.2-1.9,4.2-4.2v-15.8c9.4-0.8,18.7-2.2,28.1-3.7c5.3-0.8,10.7-1.7,16.2-2.4l-11.9,152h-112
	l-2.1-27c-0.2-2.3-2.2-4.1-4.6-3.9c-2.3,0.2-4.1,2.2-3.9,4.6l2.4,30.9c0.2,2.2,2,3.9,4.2,3.9H5.5c2.2,0,4-1.7,4.2-3.9l12.7-161l0,0
	l2.7-34.7c0.2-2.3-1.6-4.4-3.9-4.6c-2.3-0.2-4.4,1.6-4.6,3.9l-2.4,31.2C8,468.6,1.9,469.6-4,470.5c-9,1.4-17.9,2.8-26.8,3.6v-13.5
	c0-2.3-1.9-4.2-4.2-4.2h-37.8c-2.3,0-4.2,1.9-4.2,4.2v9.2c-16-4.8-31.7-5.1-45.9-1l-4.1-52.9H18.3l-0.4,4.5
	c-0.2,2.3,1.6,4.4,3.9,4.6c2.3,0.2,4.4-1.6,4.6-3.9l0.7-9.1C27.2,410.7,26.7,409.5,25.9,408.7z M-39.3,494.1h-29.3v-13.5
	c8.7,1.8,16.9,2.5,25,2.5c1.5,0,2.9,0,4.4-0.1L-39.3,494.1L-39.3,494.1z M-39.3,464.8v9.8c-9.5,0.3-19.1-0.3-29.3-2.6v-7.2
	L-39.3,464.8L-39.3,464.8z M-94.7,407.3h-12.6v-32.8c11.5,1,22.7,5.5,31.9,13.5L-94.7,407.3z M-135.7,413.8l1.1,14h-34.6
	c0.7-12.1,5.2-24.1,13.6-33.8L-135.7,413.8z M-155.6,468.2c-8-9.2-12.5-20.4-13.5-31.9h35.1l0.7,9.6L-155.6,468.2z M-130.2,407.3
	l-19.4-19.3c9.8-8.4,21.7-13,33.8-13.6v33h-14.4V407.3z"/>
<path id="XMLID_39_" class="st0" d="M-50.5,514.2L-86,501.1c-1.1-0.4-2.2-0.3-3.2,0.1c-1,0.5-1.8,1.3-2.2,2.4l-13.1,35.5
	c-0.8,2.2,0.3,4.6,2.5,5.4l35.5,13.1c0.5,0.2,1,0.3,1.5,0.3c1.7,0,3.3-1.1,4-2.8l13.1-35.5C-47.2,517.4-48.3,515-50.5,514.2z
	 M-67.5,548.2L-95,538.1l10.1-27.5l27.5,10.1L-67.5,548.2z"/>
<path id="XMLID_38_" class="st0" d="M-10.8,519.6c2.3,0,4.2-1.9,4.2-4.2v-0.9c0-2.3-1.9-4.2-4.2-4.2s-4.2,1.9-4.2,4.2v0.9
	C-15,517.7-13.2,519.6-10.8,519.6z"/>
<path id="XMLID_37_" class="st0" d="M-69.3,601.7c-2.3,0-4.2,1.9-4.2,4.2v0.9c0,2.3,1.9,4.2,4.2,4.2s4.2-1.9,4.2-4.2v-0.9
	C-65,603.5-66.9,601.7-69.3,601.7z"/>
<path id="XMLID_36_" class="st0" d="M-53.9,617.8c2.3,0,4.2-1.9,4.2-4.2v-0.9c0-2.3-1.9-4.2-4.2-4.2s-4.2,1.9-4.2,4.2v0.9
	C-58.2,615.9-56.3,617.8-53.9,617.8z"/>
<path id="XMLID_35_" class="st0" d="M-18.9,573.6c-2.3,0-4.2,1.9-4.2,4.2v0.9c0,2.3,1.9,4.2,4.2,4.2s4.2-1.9,4.2-4.2v-0.9
	C-14.7,575.5-16.5,573.6-18.9,573.6z"/>
<path id="XMLID_34_" class="st0" d="M-53.9,566.6v-0.9c0-2.3-1.9-4.2-4.2-4.2s-4.2,1.9-4.2,4.2v0.9c0,2.3,1.9,4.2,4.2,4.2
	C-55.8,570.8-53.9,569-53.9,566.6z"/>
<path id="XMLID_33_" class="st0" d="M-24.4,504.8c-2.3,0-4.2,1.9-4.2,4.2v0.9c0,2.3,1.9,4.2,4.2,4.2s4.2-1.9,4.2-4.2V509
	C-20.2,506.7-22.1,504.8-24.4,504.8z"/>
<g id="XMLID_60_">
	<path id="XMLID_61_" class="st0" d="M139.6,457.9v43.6h84v49.7h-84v83H87.9v-226h137.3v49.7H139.6z"/>
	<path id="XMLID_63_" class="st0" d="M351.2,469.5v54.9c-20-3.2-48.5,4.8-48.5,36.8v73h-48.5V472.8h48.5v28.8
		C309.2,479.9,330.8,469.5,351.2,469.5z"/>
	<path id="XMLID_65_" class="st1" d="M451,595.5c13.2,0,24.6-5.2,31-12.3l38.8,22.3c-15.8,22-39.7,33.3-70.4,33.3
		c-55.2,0-89.5-37.1-89.5-85.3c0-48.1,34.9-85.3,85.9-85.3c47.2,0,82,36.5,82,85.3c0,6.8-0.6,13.2-1.9,19.4H412.2
		C418.4,589.7,433.2,595.5,451,595.5z M480.7,536.7c-5.2-18.7-19.7-25.5-34.2-25.5c-18.4,0-30.7,9-35.2,25.5H480.7z"/>
	<path id="XMLID_68_" class="st0" d="M675.2,585.8c0,37.1-32.3,53-67.2,53c-32.3,0-56.9-12.3-69.5-38.4l42-23.9
		c4.2,12.3,13.2,19.1,27.5,19.1c11.6,0,17.4-3.6,17.4-10c0-17.8-79.5-8.4-79.5-64.3c0-35.2,29.7-53,63.3-53
		c26.2,0,49.4,11.6,63,34.6l-41.3,22.3c-4.5-8.4-11-14.2-21.6-14.2c-8.4,0-13.6,3.2-13.6,9C595.7,538.3,675.2,526.1,675.2,585.8z"/>
	<path id="XMLID_70_" class="st0" d="M854.4,535.1v99.2H806v-92.1c0-20-12.6-29.4-28.1-29.4c-17.8,0-30,10.3-30,33.3v88.2h-48.5
		V408.2h48.5V488c8.7-12,24.9-19.7,46.2-19.7C826.7,468.2,854.4,491.5,854.4,535.1z"/>
</g>
</svg>
